<?xml version="1.0" encoding="utf-8"?>
<!-- Generator: Adobe Illustrator 25.2.1, SVG Export Plug-In . SVG Version: 6.00 Build 0)  -->
<svg version="1.1" id="Layer_1" xmlns="http://www.w3.org/2000/svg" xmlns:xlink="http://www.w3.org/1999/xlink" x="0px" y="0px"
	 viewBox="0 0 40 49" style="enable-background:new 0 0 40 49;" xml:space="preserve">
<style type="text/css">
	.st0{fill:#FFFFFF;}
</style>
<g>
	<path class="st0" d="M16.9,25.6c0-1.5-1-1.5-1-1.5h-0.6h-3.7l0,0v3.3h4C16.3,27.4,16.9,27.2,16.9,25.6z"/>
	<path class="st0" d="M26.8,27.4c-2.3,0-2.6,2.3-2.6,2.3H29C29.1,29.7,29.1,27.4,26.8,27.4z"/>
	<path class="st0" d="M15.8,29.7h-4.3v3.9h3.8c0.1,0,0.2,0,0.3,0c0.6,0,1.8-0.2,1.8-1.9C17.4,29.6,15.8,29.7,15.8,29.7z"/>
	<path class="st0" d="M20,9C9,9,0,18,0,29s9,20,20,20s20-9,20-20S31.1,9,20,9z M23.6,22.4h6.1v1.8h-6.1V22.4z M20.5,31.9
		c0,4.5-4.7,4.3-4.7,4.3h-4.3h-0.1H8.2V21.5h3.2h0.1h4.3c2.3,0,4.2,1.3,4.2,3.9s-2.2,2.8-2.2,2.8C20.7,28.2,20.5,31.9,20.5,31.9z
		 M31.9,31.6h-7.6c0,2.7,2.6,2.6,2.6,2.6c2.4,0,2.4-1.6,2.4-1.6h2.6c0,4.2-5,3.9-5,3.9c-6,0-5.7-5.6-5.7-5.6s0-5.7,5.7-5.7
		C32.7,25.2,31.9,31.6,31.9,31.6z"/>
</g>
</svg>
