<?xml version="1.0" encoding="utf-8"?>
<!-- Generator: Adobe Illustrator 25.2.1, SVG Export Plug-In . SVG Version: 6.00 Build 0)  -->
<svg version="1.1" xmlns="http://www.w3.org/2000/svg" xmlns:xlink="http://www.w3.org/1999/xlink" x="0px" y="0px"
	 viewBox="0 0 1280 1024" style="enable-background:new 0 0 1280 1024;" xml:space="preserve">
<style type="text/css">
	.st0{fill:#E8250C;}
	.st1{fill:#5D5D5D;}
	.st2{fill:#FA3A00;}
	.st3{fill:#6D6D6D;}
	.st4{fill:#EB0A40;}
	.st5{fill:#535353;}
	.st6{fill:#FF1A1C;}
	.st7{fill:#5F5F5F;}
</style>
<g id="rojooscuro">
	<path class="st1" d="M1187.9,573.8c-0.3-7.7-2.6-14.6-7.4-20.8c-4.4-5.7-10.6-10.7-17.8-12.3c-8.4-1.9-19.2-1.9-26.4,3.5
		c-8.8,6.5-17.1,13.5-25.2,20.7c-2,1.6-4,3.2-6,4.7c-39.3,29.8-82,54.8-127.3,74.3c-14.2,5.8-28.5,11.1-43.1,15.8
		c-8.4,2.7-15.8,7.9-20.3,15.6c-4.3,7.3-6.1,18-3.4,26.2c0.9,2.8,2.2,5.5,3.7,8c-1.3,1-2.7,2-4,3c-14.3,11-28.2,22.3-40.5,35.5
		c-10.1,10.8-13.8,28.6-5.4,41.6c3.2,5,7.4,9.1,12.3,12.3c4.2,2.7,8.9,4,13.6,4.3c-9.9,10.7-13.4,28.5-5.1,41.3
		c1.1,1.7,2.3,3.3,3.7,4.8c-14.3,16-26.3,34.6-19.9,57.3c2,7.2,6.4,13.3,12.3,17.8c0.9,0.7,1.9,1.4,3,2.1
		c-6.2,5.8-12.3,11.6-18.5,17.4c-14.1,13.2-28.2,26.5-42.3,39.7c-10,9.4-12.3,25.3-7.1,37.5c5.6,13.3,17.4,19.9,31.4,21.1
		c6.5,0.5,12.9,0.1,19.1-1c-0.9,5.9-0.2,12.1,2.3,18.1c5.5,13,17.4,20.3,31.3,21c23.6,1.3,40.5-13.5,57.5-27.1
		c7.5-5.6,15.2-10.7,23.2-15.3c1.9,0.5,3.9,0.8,6,0.9c4.2,1.8,8.7,2.8,12.9,2.6c8.8-0.4,18-3.3,24.2-10c1.8-2.3,3.6-4.6,5.3-6.9
		c2.4-4.1,3.8-8.4,4.4-12.9c5-4.8,7.7-12.3,8.6-18.9c0.9-6.4,0.3-13.4-2.6-19.3c1.4-2.9,2.5-5.9,3.1-9.1c0.2-1.2,0.4-2.4,0.6-3.6
		c16.6-24.2,31.3-49.6,39.9-77.9c4-13.2-1.8-28-12.3-36.2c-1.1-0.9-2.2-1.6-3.4-2.3c1.6-3.5,2.6-7.3,3-11.2
		c13.5-15.1,27.1-30.1,40.5-45.2c9.3-10.4,12.6-24,7-37.1c-2.4-5.6-5.7-9.9-10.5-13.6c-1.8-1.4-3.5-2.5-5.3-3.4
		c10.1-7.9,19.6-16.4,28.1-25.9c0.9-0.8,1.8-1.7,2.7-2.5c2.5-2.4,4.5-5.2,6-8.2c3.7-5,7-10.2,10-15.8c6.5-12.2,5.9-26.7-2.7-37.8
		c-3.5-4.6-7.8-7.9-12.6-10c7.3-7.2,14.6-14.4,22.1-21.3c7.1-5.7,14.1-11.5,21-17.5C1183.9,592.8,1188.2,581.8,1187.9,573.8z"/>
	<path class="st1" d="M327.8,396.3c-2.5-4.8-5.1-9.5-7.8-14.3c-22.3-39.3-49.2-76.2-79.6-109.6c-14.4-15.8-29.6-30.9-45.6-45
		c-17.9-15.8-36.8-30.2-55.3-45.3C98.2,148.2,61.5,109.3,25,70.4C13.4,58-9.3,57.8-20.9,70.4c-8.1,8.9-10.9,20.4-8.2,31
		c-5.1,2.7-9.5,6.8-12.2,11.9c-8.5,16-3.7,34.7,11.6,44.4c26,16.5,52.1,33,78.1,49.5c23.2,14.7,47.5,28.6,69.7,45
		c8.7,7.1,16.6,14.9,23.6,23.6c13.4,17.9,25.3,37,37.7,55.5c13.7,20.4,27.3,40.9,41,61.3c13.5,20.1,26.8,44.1,49.5,55.1
		c8,3.9,16.6,7,25.6,7.1c13.4,0.1,26.6-6.5,33.5-18.2C336.8,423.7,334.4,409.2,327.8,396.3z"/>
	<g>
		<path class="st1" d="M611.8,344.7c-5.4-4.9-11.4-8-18.6-8.9c-15.6-2.1-31.6,7.5-35.6,23.3c-1.9,7.6-3.7,15.2-5.2,22.9
			c-11.3,5.1-19.4,15.9-19.4,29.4c0,14.2,0,28.4,0,42.6c-14.7-5.8-32.6-1.3-40.8,13.3c-4.6,8.2-8.9,16.4-13.2,24.8
			c8.8-27,12.4-55.4,13.2-84.2c0.2-8.3,0.2-16.7,0.1-25c3.7-22.2,7-44.5,10-66.8c7.3-55.2,12-110.8,13.8-166.5
			c0.5-15.6,0.8-31.3,0.9-46.9c0.1-13.7-0.1-27.3,1.2-40.9c1.2-6.7,2.9-13.3,5.3-19.7c4.2-8.8,9.3-17,15.1-24.8
			c1.3-1.6,2.5-3.1,3.8-4.7c4.7-5.6,7.9-11.2,8.9-18.6c0.9-6.9,0-14.7-3.9-20.7c-3-4.7-7-8.6-11.6-11.6c-6.1-4-18-6.1-25-3.3
			c-10.5,4.3-19.9,9.4-28.2,17c-3.1-4.8-7.1-9-12.2-12.5c-16-10.7-36.6-4.7-48.6,8.7c-1.2,1.3-2.3,2.6-3.4,3.9
			c-9-7.6-18.7-14.5-28.3-21.3c-15.2-10.8-35.4-11.9-49.7,1.5c-5.3,5-8.5,11.1-9.9,17.6c-9.7-4.9-21.8-5.2-31.1,0.8
			c-15,9.7-20.6,28.6-11.6,44.4c30.1,53.5,67.4,102.5,99.7,154.6c0.6,3.9,1.2,7.7,1.8,11.6c5.3,35.4,10.9,71,24.4,104.3
			c2.7,6.8,5.7,12.3,11.6,16.9c0.3,0.2,0.6,0.5,1,0.7c-0.3,14.7-0.1,29.5,0.3,44.2c0.2,9.5,0.5,19,0.7,28.5
			c-1.5,8.2-3,16.3-4.5,24.5c-6.4,33.2-15.4,66.4-15.9,100.4c-0.2,13.7,10.2,28.2,23.8,31.3c10.6,2.4,23.4-0.1,31.4-7.8
			c-11.9,27.2-22.2,55.1-30.6,83.5c-14.2,0.2-27,9.1-31.3,23.6c-8.5,28.4-17.3,56.8-28.5,84.3c-12.1,27.7-27.3,53.6-45.5,77.7
			c-19.7,24.9-41.6,47.9-63.7,70.6c-12.5,12.9-25.2,25.6-38,38.2c-11.1,10.9-22.7,21.5-32.5,33.5c-6.5,7.9-13,16.2-17.6,25.4
			c-6.1,12.3-8.9,23.3-10.7,36.9c-1.4,10.9,7.2,22.8,16.1,28c9.3,5.4,23.6,6.6,32.8,0c14.7-10.6,31-18.3,47.1-26.4
			c18.2-9.2,35.8-19.5,51-33.4c12.7-11.6,22.9-26,32.7-40.3c1.6-0.6,3.2-1.2,4.8-2c34.9-17.8,71.1-32,101-58c1.3-0.8,2.7-1.5,4-2.3
			c17.8-10.2,35.6-20.4,53.4-30.6c17.8-10.2,35.7-19.8,51.8-32.7c5.1-4.1,9.9-8.9,14.2-14.2c5.5,2.3,11.2,3.1,17.4,2.3
			c15.9-2.1,28-15.6,28.2-31.9c0.7-78.6-0.6-157.3-3.6-235.9c-0.3-6.4-2.4-12.8-5.9-18.1c4.3-46,8.6-92.1,13-138.1
			C622,360.2,617.2,349.7,611.8,344.7z"/>
		<path class="st1" d="M246.1,822.1c33.2-53.3,60.9-111,71-173.1c5.6-1.5,11.2-3,16.8-4.4c15.7-3.9,25.3-20.1,23.3-35.6
			c-0.9-6.8-3.7-13.9-8.9-18.6c-6.7-6.1-13.9-8.7-23-9.5c-2.9-0.3-5.8-0.5-8.8-0.6c-5.6-10.1-16-17.4-28.1-16.8
			c-13.8,0.6-26.7,9.5-31,22.4c-19.2,4.2-38,10.5-56.1,18c-20.7,8.5-40.8,18-60.8,28.1c-20.3,10.3-42.2,21-52.9,42.3
			c-1,1.9-1.9,3.9-2.7,5.9c-15.6,11-29.7,23.9-40.5,40.1c-21.7,32.6-18,74.1-18.1,111.4c-0.1,36.6-0.1,73.4,2.8,110
			c1.6,20.6,7.8,43.4,27.4,54.2c22.7,12.5,47.9,3.3,67.3-11c13.6-10,25.3-21.1,35.7-34.4c10.6-13.5,20.2-27.5,29.6-41.8
			C208.2,879.8,227.9,851.4,246.1,822.1z M141.4,721.1C141.4,721.1,141.3,721.1,141.4,721.1C141.3,721.2,141.3,721.1,141.4,721.1
			C141.3,721.1,141.4,721.1,141.4,721.1z"/>
	</g>
</g>
<g id="naranjo">
	<g>
		<path class="st3" d="M426.5,279.8c-4.9-40.7-9.2-82.4-20.2-122C386.3,85.6,337.9,27.4,287-25.7c-5.9-6.2-11.9-12.3-17.9-18.4
			c-12.5-12.8-35.8-13.4-48.1,0c-3.9,4.2-6.6,9.1-8.2,14.2c-10.9-9.2-22.8-17.2-35.5-23.3c-8-3.8-16.2-5.7-25-3.3
			c-7.5,2.1-15.7,7.9-19.4,14.9c-8.2,15.5-4.1,35.4,11.6,44.4c4.6,2.7,9.1,5.5,13.6,8.4c-0.3,1.8-0.4,3.5-0.4,5.2
			c0.9,19.2,14.6,31.6,33.2,33.2c0.3,0,0.7,0.1,1,0.1c2.3,0.4,4.6,0.9,6.9,1.5c9.8,14.6,18,30.3,25,46.4
			c11.4,27.8,20.1,56.5,30,84.8c5.3,22.5,11.7,44.7,23.4,65.2c1.8,3.1,4.1,5.8,6.8,8.1c3.9,8.8,7.8,17.6,11.6,26.4
			c5.5,13.3,10.5,26.9,14.4,40.8c-0.7,68.4-8,136.9-6.5,205.4c0.3,14.9,1.1,29.7,2.4,44.5c0.3,3.2,0.6,6.3,1,9.5
			c-6.1,22-13.7,43.6-22.4,64.7c-12.4,28.8-26.5,56.8-41.4,84.3c-15.5,28.7-31.2,57.4-48.3,85.2c-9,14.5-18.5,28.7-28.8,42.3
			c-33.9,42.8-74.8,81.7-99.6,130.9c-7.8,15.4-15.2,32.2-18.2,49.3c-1.6,9.2-1.5,17.8,3.4,26.2c4.1,7.1,12.2,13.8,20.3,15.6
			c15.2,3.5,29.9-2.5,37.7-14.9c4.4,0.6,9,0.5,13.2-0.9c7.9-2.6,17.3-7.8,20.7-15.9c12.9-30.6,29.8-58.7,49.7-85.1
			c36.8-46.8,80.2-87.9,118.2-133.7c20.8-25,40.5-51.2,56.1-79.8c18.3-33.6,30.5-70,39.4-107.1c19-79.6,30.5-161.2,28.7-243.1
			C434.9,360.1,431.4,319.9,426.5,279.8z"/>
		<path class="st3" d="M1288.8,180.6c-2.7-8.4-7.9-16.4-15.9-20.6c-8.6-4.6-17-5.2-26.6-3.5c-52.9,9.2-104,24.1-150.4,51.9
			c-21,12.6-40.8,27.1-60.2,42.1c-38.5,21.3-78.4,40.3-108.6,73.5c-11.9,13.1-22.6,27.8-29.6,44.1c-3.8,8.9-6.2,16.8-3.5,26.6
			c2,7.1,7.1,14.8,13.4,19.2c-5,13.8-6.2,29-2.6,43.6c1.9,7.7,7,14.4,13.6,19c0,0,0,0.1,0,0.1c-0.2,1.3-0.4,2.6-0.5,3.9
			c-8,6.6-15.2,14-21.6,22c-5.9,7.4-10,14.4-10,24.2c0,8.4,3.7,18.4,10,24.2c2.3,2.1,4.9,4,7.6,5.6c0.7,3.3,1.7,6.4,3.1,9.4
			c-0.1,2.4-0.1,4.8,0.1,7.2c0.4,5.4,1.6,10.5,3.7,15c-10.3,6.2-20.8,12-31.5,17.5c-12.9,6.6-20.2,24.9-15.7,38.6
			c4.7,14.6,17.4,24.8,33,25.1c45,0.8,89.2-17.7,129.5-35.9c34.5-15.5,67.4-34.8,98.1-56.9c19.5-14.1,38.4-29.1,56.3-45.3
			c13-11.8,12.9-35.6,0-47.4c-13.9-12.8-33.5-12.6-47.4,0c-9.8,8.8-19.8,17.3-30.2,25.4c-14.3,10.8-29.1,21-44.4,30.3
			c-2.2-14.9-13.7-28.4-29.4-32.4c-6.9-1.8-13.3-1.6-19.5-0.4c33-21.6,64.8-45,95.5-69.8c22.7-18.3,44.8-37.6,64.3-59.4
			c22.4-25.1,40.5-52.4,53.5-83.5c6-14.3,10.4-29.1,12.7-44.5c0.9-6.1,1.8-12.2,2.1-18.2c0,0,0,0,0.1,0c8.8-3.4,17.7-6.3,26.9-8.4
			C1282.3,219,1294.4,197.8,1288.8,180.6z"/>
		<path class="st3" d="M880.8,123c6.8-15.8,14.2-31.4,22.2-46.6c10.2,7.6,24.5,9.4,37.9,2.5c16.7-8.6,24-24.6,30.5-40.9
			c7.6-1.1,15.1-4.5,19.5-9.9c2.5-3,4.9-6.1,7.4-9.1c6-7.3,10.1-14.6,10.1-24.4c0-8.5-3.8-18.6-10.1-24.4
			c-6.6-6-15.2-10.5-24.4-10.1c-5.3,0.2-11.2,1.4-16.2,3.8c-1.8-2.3-3.9-4.4-6.2-6.3c-11.2-8.6-26-9.4-38.4-2.7
			c-9.4,5-17.6,11.5-25.1,18.9c-3.6-4.5-8.4-7.9-13.7-10.1c-12.4-5.3-28.2-2.9-37.8,7.2c-16.2,17-28,37-38.8,57.7
			c-1.1-0.8-2.2-1.5-3.4-2.1c-13.7-7.2-30.7-5.8-42,5.4c-11.7,11.6-19.8,25.7-26.3,40.6c-7,16-13.6,32.2-19.9,48.4
			c-2.5-0.6-5-0.9-7.6-1c-8-0.4-19.2,4-24.5,10.1c-23.1,26.8-40,56.5-52.8,89.4c-12.1,31.1-18.3,63.7-22.5,96.6
			c-8.7,68.6-1.6,137.7,2,206.4c2.2,42,3.2,84.2-1.6,126.1c-0.9,8.1,4.5,18.5,10,24c5.9,5.9,15.6,10.3,24,10c8.8-0.4,17.9-3.3,24-10
			c6.5-7.1,8.8-14.6,10-24c4.2-36.1,4.3-72.2,3-108.2c0.6-0.1,1.1-0.1,1.7-0.2c17-2.3,29.8-16.7,30.1-34
			c0.5-41.9,3.5-83.7,8.8-125.3c0.3-1.8,0.5-3.6,0.8-5.4c5.4,3.3,11.5,5.1,17.6,4.9c6.1-0.3,12-1.9,17.5-4.7
			c6.7-3.5,14.7-13,15.9-20.7c9-57,23-113.2,41.8-167.8c0.2,0.2,0.4,0.4,0.6,0.6c5.7,5.2,12.1,8.5,19.9,9.5
			c17.4,2.3,32.6-8.2,38-24.8C868,155.7,874.1,139.2,880.8,123z"/>
		<path class="st3" d="M126.4,366.7c2-0.9,3.9-2.2,5.7-3.9c11.3,11.8,21.8,24.3,31.7,36.9c5,6.5,16.7,10.1,24.5,10.1
			c8.5,0,18.6-3.8,24.5-10.1c6.1-6.6,10.5-15.3,10.1-24.5c-0.4-9.7-4.1-16.9-10.1-24.5c-12.5-15.6-25.7-30.5-39.9-44.6
			c-8-7.9-16.3-16-25.1-23.4c-9.7-32.3-34.9-56.7-61.5-76.1c-17.5-12.7-35.8-24.3-54.2-35.9c-9-6.8-18.6-12.9-28.5-18
			c-8.2-4.2-17.4-6-26.5-3.5c-8,2.2-16.6,8.4-20.5,15.8c-9,17.1-3.9,36.7,12.3,47c8.5,5.5,17,10.9,25.5,16.4c1.3,1.1,2.7,2.3,4,3.5
			c-13.7,6.5-25.3,15.4-37.2,25.1c-6.1,5-9.6,15.6-9.6,23.1c0,6.6,2.5,14.4,6.7,20c-9.1,12.7-16,27.1-20.4,41.8
			c-3.3,11.1,0.3,24.7,8.5,33.2c-9.7,11-19.2,22-28.9,33c-11.4,13-13.6,31-2.7,45.1c10.2,13.2,29.6,17.9,44.3,8.8
			C0.5,436.8,41,409.6,80.4,380.8C96.3,377.6,111.3,373.3,126.4,366.7z"/>
	</g>
</g>
<g id="rosa">
	<g>
		<path class="st5" d="M1365.1,752.8c-13.2-10.2-33.3-9.8-45.3,2.7c-3.7,3.9-7.5,7.6-11.3,11.3c-0.3-0.4-0.6-0.7-0.9-1.1
			c-3.6-4.7-8.5-8.9-14.1-11.2c3.3-8,6.5-16,9.6-24c9.3-24.5,17.3-49.5,24.5-74.7c0.3-0.9,0.6-1.7,0.9-2.6
			c12-33.2,22.5-66.9,32.9-100.6c5.1-16.5-4.7-34.3-20-40.7c-15.3-6.5-34.8-1-43.1,14.1c-18.8,34.2-26.3,72.3-36.7,109.5
			c-0.1,0.3-0.2,0.6-0.3,0.9c-5.4,14.8-11,29.6-17.1,44.2c-19,44.2-41.8,86.7-70.9,125.1c-19.4,24.4-41.2,46.6-65.6,66.1
			c-23.2,18.6-48.2,35.8-67.9,58.4c-14.3,16.5-25.1,34-32.5,54.5c-0.9,2.5-1.3,5.4-1.3,8.4c-13.5,20.8-23.7,43.7-30.2,67.7
			c-1.1,4.1-1.4,8.3-0.9,12.4c-3.2,10.8-6.3,22.7-5.7,33.4c0.9,14.1,9.6,28.5,24.3,31.9c5.8,1.3,11.8,1.3,17.6,0
			c7.2-1.6,16.5-8.4,19.7-15.2c6.1-13,8.2-27,12.3-40.7c0.8-2.6,1.6-5.2,2.4-7.7c13.9,2.7,28.6-3.4,36.2-16.1
			c2.8-4.7,5.8-9.3,8.9-13.7c10.8,3.1,22.7,3.1,32.6-1.6c6.3,16.3,23.7,27.2,41.4,22c7.1-2.1,14.1-4.7,20.8-7.7
			c19.7-7.8,38.7-17.1,57-27.7c2.4,5.1,5.8,9.5,10.5,13.1c5.8,4.5,13.3,7.7,20.8,7.4c9.5-0.4,17-3.9,24.2-10
			c2.1-1.7,4.1-3.5,6.1-5.3c1-0.5,2.1-1,3.1-1.6c11.4-6.9,19.3-19.2,18.8-32.8c-0.2-5.4-1.5-10.5-3.8-15.1
			c-1.2-4.1-3.1-7.9-5.9-11.5c-0.1-0.1-0.2-0.3-0.3-0.4c0.7-4.5,0.9-9,0.6-13.4c-0.6-7.5-2.8-14.3-6.7-19.9c2.8-4,5.6-8.1,8.4-12.1
			c4.8-6.9,5.6-18.3,3.4-26.2c-0.3-1.2-0.8-2.5-1.3-3.7c1.1-1.8,2.1-3.6,3.1-5.4c17.8-31.5,30.1-65.8,50.5-95.8
			c4.6-6.8,6-18.8,3.5-26.6C1375.1,763.4,1371.2,757.5,1365.1,752.8z"/>
		<path class="st5" d="M1435.7,155c-40.2-20.5-85.4-27.4-130.2-27.5c-0.2-1.3-0.5-2.7-0.8-4c-0.3-1.3-0.7-2.6-1-3.8
			c9.6-16,16.5-33.7,19.7-51.8c2.2-12.5,0.5-24.4-8.9-33.7c-1.9-1.9-4.2-3.7-6.7-5.2c-1.5-4.4-3.9-8.4-7.5-11.8
			c-1-1-2.1-1.8-3.2-2.6c4.5-5.7,7.1-12.7,6.8-20.6c-0.4-9-3.4-18.4-10.2-24.6c-7.1-6.5-15-9.4-24.6-10.2
			c-67-5.3-135.4-1.3-200.8,15.1c-58.3,14.6-115.2,39.8-163.4,76c-24.3,18.2-47,38.1-66.7,61.2c-21.6,25.4-39.7,53.1-55.3,82.5
			C751.2,253.2,726,316.1,704,379.7c-21.3,61.7-39.2,124.4-56.8,187.2c-2.2,7.8-4.4,15.6-6.5,23.4c-1.1,4-1.4,8.1-0.9,12.2
			c-5.4,13.9-10.7,27.7-16.1,41.6c-8.1,13.4-16.6,26.5-25.4,39.4c-9.1,13.4-18.6,26.5-28.5,39.4c-32.4,41.4-68.4,79.8-108,114.3
			c-10.3,9-20.9,17.7-31.7,26.1c-39.7,30.2-82.2,56.1-127,78.1c-55.8,27.4-112.8,52.5-169.7,77.5c-32.4,14.2-65.1,27.8-97.4,42.4
			c-7,3.2-13.9,13-15.6,20.3c-1.7,7.6-1.3,14.9,1.7,22.1c6,14.2,24.2,25.8,40.1,19.7c37.6-14.6,74.5-31,111.4-47.3
			c10.8-4.8,21.6-9.6,32.4-14.4c2.4,8,7.7,15.1,15.5,20.2c39.9,26.1,88.6,22.6,132.3,7.9c12.4,7.3,26.5,10.5,41.4,9.8
			c14.3-0.7,28.6-3.7,42.4-7.2c25.9-6.5,51-16.6,74.8-28.6c45.2-23,86-55.7,120.2-93c76.9-83.9,121.1-191.1,153.3-298.8
			c16.2-54.1,28.4-109.8,49.9-162.2c9.8-22.4,21.4-43.8,36-63.4c3.8-4.8,7.8-9.5,12-14c4.8-5.2,7.9-11.9,9-18.8
			c33.7-38.6,70.5-74.4,110.9-106c39.3-29.8,81.6-55.5,126.9-75.1c38.4-15.7,78.5-27.1,119.6-33.1c32.3-3.9,65.1-4.6,97.5-0.8
			c15.1,2.3,30,5.9,44.3,11.4c3.1,1.4,6.1,2.9,9,4.6c15.9,8.6,38.4,4.5,47.3-12.4C1456.5,186.5,1452.9,163.7,1435.7,155z"/>
		<path class="st5" d="M22.6,98.7c3.6,1.9,7.1,4,10.4,6.4c10.6,8.6,20.6,18.1,30.7,27.1c12.1,10.7,24.2,21.5,36.2,32.2
			c11.8,10.5,23.7,21.1,35.5,31.6c11.1,9.9,22.2,19.6,31.5,31.2c7.2,9.6,14.1,19.4,21.9,28.5c6.8,8.1,14,15.9,20.7,24.2
			c10.2,13.7,19.6,28.1,29.1,42.3c10.5,15.6,21,31.2,31.5,46.8c7.8,11.6,22.5,19.5,36.7,14.9c13.8-4.5,23.7-16.5,23.8-31.3
			c0.8-67.9-13.6-135.9-39.1-198.7C266.5,91.7,232.3,34.3,191.3-18.8c-23.4-30.4-48.3-59.5-74.7-87.4c-11.1-11.8-30.3-12.1-42.6-2.5
			c-12.3,9.5-17.1,28.2-8.4,41.9c2.2,3.4,4.3,6.8,6.3,10.2c-2.8-1.6-5.7-2.9-8.9-3.9c-9.9-3.3-23.2-2.3-31.7,3.9
			c-6.1,4.4-10.6,9.2-13.3,15.4C7.3-44.8-3.8-45.4-15-40.7c-18.6,7.9-27.5,28.5-22.7,47.9c0.6,2.3,1.3,4.6,2.3,6.8
			c-10.9-2.9-23.3-0.5-31.2,8.2c-11.8,12.8-13,33.2,0,45.9c10.2,10,22.9,16.8,36.6,20.6c10.4,2.9,21.3,4,32,5.3
			C9,95.1,15.9,96.4,22.6,98.7z"/>
	</g>
</g>
<g id="rojo">
	<g>
		<path class="st7" d="M920.9,664.5c-0.2-28.8,0.2-57.6,3.7-86.2c3.4-22.7,8.8-45,17.2-66.3c4.2-9.5,9.1-18.6,14.7-27.4
			c9.6-15.2,3.7-38.4-12.3-46.8c-4.9-2.6-10.1-4-15.2-4.3c9-13.6,18.5-27,28.5-40c-0.7,0.9-1.3,1.7-2,2.6c5.1-6.7,8.6-13.1,8.6-22
			c0-8.1-3.6-17.9-9.7-23.5c-6.3-5.8-14.6-10.1-23.5-9.7c-8.2,0.4-18.2,3-23.5,9.7c-22.4,28.6-43.1,58.2-61.3,89.6
			c-18.2,31.2-33.4,63.9-46.9,97.3c-12.6,31.3-22.9,63.4-30.7,96.2c-8.7,36.4-15.1,73.3-25,109.5c-5.3,19.5-11.3,38.8-18,57.8
			c-20.7,38-44.2,74.3-70.4,108.8c-33.6,43-71.5,82.6-112.9,118.2c-11.1,9.5-22.4,18.8-34,27.8c-4.4,3.4-8.8,6.7-13.3,10
			c-7.4,5.4-13.2,11.3-15.7,20.4c-2.3,8.2-1.2,19.1,3.4,26.3c4.7,7.3,11.7,13.7,20.4,15.7c8.4,1.9,19,1.9,26.3-3.4
			c5-3.7,10-7.4,15-11.2c8.3,7.5,19.9,10.8,31.9,7.8c21.3-5.4,40-16,56.5-29.5c0.2,0,0.4-0.1,0.5-0.1c13.2-2.9,23.9-10.2,33.4-19.2
			c-0.7,4.5-0.6,9.2,0.7,13.9c2.2,7.9,8.3,16.5,15.7,20.4c16.4,8.6,37.1,4.2,46.7-12.2c8.3-14.2,16.1-28.7,23.4-43.4
			c2.4,1.9,5,3.5,8,4.8c-6,12.6-12.3,25-19,37.2c-8.5,15.7-4.4,37.9,12.2,46.7c16.6,8.8,36.8,4.1,46.7-12.2
			c12.3-20.2,22.3-41.4,30.6-63.4c7.5-17.4,14.5-35.1,20.8-53c1.2-0.5,2.4-1.2,3.5-1.9c8-5.2,12.3-11.8,15.8-20.6
			c19.7-49.3,33.6-100.8,41.3-153.3c4.3-29.1,7.2-58.3,8-87.8C922,720,921.1,692.2,920.9,664.5z"/>
		<path class="st7" d="M1380.6,271.9c-3.4-1.4-7-2.3-10.7-2.5c-1.5-13.1-12.3-26.1-25.1-29c-6.1-1.4-12.3-1.4-18.3,0
			c-9,2.1-15.4,8.7-20.6,15.8c-4.6,6.3-9.2,12.5-13.9,18.6c8.3-23,14.6-46.5,18.3-70.8c1.4-9.3,1.5-17.6-3.4-26
			c-4.1-7-12.1-13.7-20.2-15.5c-8.6-2-18.3-1.5-26,3.4c-6.9,4.5-14.1,11.7-15.5,20.2c-4.6,28.5-12.6,56.3-23.4,83
			c-14.5,33.4-33.2,64.7-55.1,93.7c-29.5,37.5-64.2,70.5-101.7,99.9c-26.7,20.4-54.7,38.9-83.6,56.1c-12.6,7.5-20.5,24.4-15.8,38.9
			c3.8,11.7,12.5,20.3,23.7,23.7c-0.3,1.3-0.6,2.7-0.8,4.1c-1.1,8.2,0.7,14.4,4.1,21.9c9.5,21,37.7,25.4,57.1,17.6
			c13.4-5.4,26.6-11.2,39.6-17.3c22.2-10.5,43.8-22.4,64.7-35.2c7.7-4.7,15.2-9.5,22.7-14.5c-4.7,6.7-9.4,13.3-14.1,19.9
			c-12.2,16.9-24.7,33.6-37.4,50.1c-30.2,38.9-61.5,77.3-89,118.2c-0.7,1-1.4,2-2,3c-9.6,14.5-18.7,29.2-27.1,44.5
			c-8.4,15.2-4.8,34,8.9,44.6c2.5,2,5.2,3.5,8,4.6c-4.8,4.1-9.6,8-14.6,11.9c-23.2,17.6-47.9,33.2-73.9,46.6
			c-15.3,7.9-20.5,28.2-14.2,43.3c6.4,15.2,24.3,25.4,40.9,20.1c26.3-8.5,52.8-17.7,76.6-31.9c22.7-13.5,43.5-30.4,62.9-48.1
			c35.5-32.3,66.3-69.8,93.5-109.3c25.9-37.7,48.1-77.8,67.8-119c21.7-45.5,41.5-92.3,57.5-140.1c9.4-28,17.3-57,22.4-86.4
			c9.6-18.8,19.1-37.6,28.4-56.6c0.6-0.9,1.1-1.8,1.7-2.8c11.1-18.3,21.8-37.3,27.5-58.2C1405.1,295.9,1396.2,278.5,1380.6,271.9z"
			/>
		<path class="st7" d="M478.5,570.5c18.7-30.8,37-61.8,54.9-93.1c22.9-39.9,45.2-80.1,66.9-120.7c21.2-39.6,41.3-79.6,62.6-119.1
			c22.5-41.7,46.7-82.7,75.5-120.6c22.6-28.8,48-55.4,76.7-78.2c12.4-9.3,25.4-17.9,39-25.6C868.9,5,875.1-16.5,865.7-31
			c-9.2-14.3-26.9-20-42.2-12.8c-9.8-12.3-30-18.1-43.9-8.4c-2.4,1.7-4.7,3.4-7.1,5.1c-0.5-1.1-1.1-2.1-1.7-3.1
			c-8-12.3-22.2-18.5-36.7-14.9c-19.3,4.8-35.6,17.1-49,31.3c-0.6,0.7-1.2,1.3-1.9,2c-3.6-5.2-8.4-9.6-13.9-13.6
			c-6.1-4.5-18-5.6-25-3.3c-4.1,1.3-7.9,3.2-11.2,5.7c-2.4-2-5.2-3.7-8.1-5c-12.1-5.1-27.2-2.3-36.3,7.3c-6.4-2.4-13.4-3.1-20-1
			c-8.5,2.8-14.1,7.8-19.4,14.9c-31.8,42.5-50.4,94.5-60.5,146.2c-11.2,57.7-13.4,116.6-17.5,175.1c-2.1,30-4.6,59.9-8.5,89.7
			c-7.1,50.2-18.2,99.9-37.5,146.8c-1,2.3-2,4.6-3.1,6.9c-4.1,6.8-8.3,13.6-12.4,20.4c-8.1,13.2-16.2,26.3-24.4,39.4
			c-4.7,7.5-9.3,15-14.2,22.4c-9.7,11.2-20.1,21.7-31.4,31.4c-5.8,5-9.8,15.5-9.5,23c0.3,7.3,2.5,13.8,7,19.7
			c9.8,12.7,27.7,16.5,41.9,8.4c17.8-10.2,31.4-25.5,43-42.1C445.1,633.3,463.6,602.7,478.5,570.5z"/>
		<path class="st7" d="M303.1,602.5c1.3,1.1,2.5,2.3,3.7,3.5c10,9.9,25.2,12.6,38,7.2c12.8-5.4,21.2-17.8,21.4-31.8
			c0.4-28.3-9.5-56.7-26.6-79.1c-4.4-5.8-9-11.1-13.8-16c-9.7-20.3-23.2-39-38.5-55.5c-26.6-28.7-59.8-49.9-96-64.1
			C155.2,352.4,116,348.9,77.8,355c-39.4,6.3-74.8,27.3-105,52.5c-15.1,12.6-28.8,26.9-41.1,42.1c-17.5,21.6-32.5,45.4-32.4,74.3
			c0,10.2,5.2,20.2,13.2,26.5c-6.5,19-11.8,38.4-16,58c-11.7,54.9-14.2,111-15.5,166.9c-11.3,49.1-17.4,99.6-19.7,149.8
			c-0.3,7,1.9,13.6,5.7,19.1c-0.7,6.5-1.1,13.1-1.1,19.6c0.1,33.6,11.2,66.4,34.2,91.2c9.4,10.2,25.7,12.4,38,7.2
			c7.3-3.1,12.6-8,16.1-14.2c12.7,12,29.2,20,50,21.7c15.8,1.3,33.7-3.6,46.5-13.8c15.3,4.1,31.5,4.6,46.9,0.4
			c24.4-6.5,34.6-40.1,15.3-57.9c-14.2-13-27.3-27.1-39.3-42.2c-13.1-17.5-25.1-36.2-34.2-56.1c-2.8-7.3-4.9-14.8-6.3-22.5
			c-1-10.8-0.7-21.6,0.5-32.3c2.8-17.8,7.3-35.1,12.1-52.5c3.4-12.6-1.2-27-10.9-35.6c31-38.8,65.3-75,104.4-105.7
			c25.1-18.9,52.1-35.5,80.9-48.3c11.8-4.7,24-8.5,36.5-10.7c7.1-0.7,14.1-0.8,21.2-0.2c5.3,1,10.4,2.4,15.5,4.2
			C296.6,598.5,299.9,600.4,303.1,602.5z"/>
	</g>
</g>
</svg>
