<?xml version="1.0" encoding="utf-8"?>
<!-- Generator: Adobe Illustrator 25.2.1, SVG Export Plug-In . SVG Version: 6.00 Build 0)  -->
<svg version="1.1" id="Layer_1" xmlns="http://www.w3.org/2000/svg" xmlns:xlink="http://www.w3.org/1999/xlink" x="0px" y="0px"
	 viewBox="0 0 40 49" style="enable-background:new 0 0 40 49;" xml:space="preserve">
<style type="text/css">
	.st0{fill:#FFFFFF;}
</style>
<g>
	<path class="st0" d="M23.6,26.2c-1.7,0-2.5,0.9-2.9,1.6v-1.4h-3.2c0,0.9,0,9.7,0,9.7h3.2v-5.4c0-0.3,0-0.6,0.1-0.8
		c0.2-0.6,0.8-1.2,1.7-1.2c1.2,0,1.6,0.9,1.6,2.2v5.2h3.2l0,0v-5.6C27.4,27.5,25.8,26.2,23.6,26.2z M20.7,27.8L20.7,27.8L20.7,27.8
		L20.7,27.8z"/>
	<rect x="12.5" y="26.4" class="st0" width="3.2" height="9.7"/>
	<path class="st0" d="M20,9C9,9,0,18,0,29s9,20,20,20s20-9,20-20S31,9,20,9z M30.6,38c0,0.8-0.7,1.5-1.6,1.5H10.8
		c-0.9,0-1.6-0.7-1.6-1.5V19.6c0-0.8,0.7-1.5,1.6-1.5H29c0.9,0,1.6,0.7,1.6,1.5V38z"/>
	<path class="st0" d="M14.1,21.7c-1.1,0-1.8,0.7-1.8,1.7c0,0.9,0.7,1.7,1.8,1.7l0,0c1.1,0,1.8-0.7,1.8-1.7
		C15.9,22.4,15.2,21.7,14.1,21.7z"/>
</g>
</svg>
